<?xml version="1.0" encoding="utf-8"?>
<!-- Generator: Adobe Illustrator 24.2.0, SVG Export Plug-In . SVG Version: 6.00 Build 0)  -->
<svg version="1.1" id="Layer_1" xmlns="http://www.w3.org/2000/svg" xmlns:xlink="http://www.w3.org/1999/xlink" x="0px" y="0px"
	 viewBox="0 0 889 889" style="enable-background:new 0 0 889 889;" xml:space="preserve">
<style type="text/css">
	.st0{fill:#010101;}
	.st1{fill:#060606;}
	.st2{fill:#030303;}
	.st3{fill:#020202;}
	.st4{fill:#040404;}
	.st5{fill:#FDFDFD;}
	.st6{fill:#FEFEFE;}
</style>
<g>
	<path class="st0" d="M280.49,288.64c11.51-2.52,23.34-1.66,35.03-1.81c79.67-0.14,159.34-0.06,239-0.08
		c8.69,0.05,17.43-0.23,26.07,0.97c14.37,1.89,27.52,10.02,36.59,21.2c8.95,11.94,13.55,27.66,9.74,42.39
		c-3.04,0.39-6.11,0.4-9.15,0.11c0.99-4.94,1.8-9.97,1.25-15.01c-0.33-6.27-2.96-12.1-5.88-17.55c-2.6-4.54-5.73-8.92-9.96-12.07
		c-4.12-3.08-8.86-5.12-13.4-7.45c-6.21-3.27-13.43-3.49-20.28-3.67c-87.68-0.01-175.36,0-263.04-0.01
		c-10.37-0.01-21.18-0.37-30.85,3.97c-9.05,3.44-16.14,10.5-21.54,18.34c-6.18,9.84-7.24,22.07-5.34,33.34
		c-3.14,0.74-6.31,0.25-9.38-0.47c-1.96-11.56-0.67-24.11,5.59-34.24C252.4,303.02,265.23,292.17,280.49,288.64z"/>
	<path class="st0" d="M80.63,394.07c8.2,0.12,16.44-0.36,24.62,0.39c-1.02,1.29-2.54,1.8-4.06,2.22
		c-0.5,16.92,0.16,33.87-0.16,50.79c-0.61,8.36-5.06,17.09-13.21,20.28c-3.76,1.25-7.74,3.21-11.77,2.07
		c-4.77-1.21-9.74-2.25-13.94-4.91c-3.94-3.15-5.63-8.44-5.46-13.35c0.19-3.75,1.07-7.43,1.37-11.17c4.74,2.98,9.77,5.54,14.2,8.99
		c-2.6,4.58-3.7,10.13-2.2,15.25c1.54,3.13,5.9,5.7,9.17,3.49c4.06-1.68,4.82-6.7,5.22-10.56c0.9-20.29,0.26-40.61,0.41-60.92
		C83.32,396.02,80.77,396.37,80.63,394.07z"/>
	<g>
		<path class="st0" d="M140.03,395.2c6.39-1.5,13.24-0.37,19.03,2.65c7.85,4.13,13.31,12.09,15.36,20.61
			c2.15,13.28,0.21,27.53-6.82,39.13c-4,6.78-11.38,11.03-18.97,12.44c-5.78,0.87-11.3-1.59-16.04-4.64
			c-8.51-5.97-13.46-15.91-14.92-26.03c-0.44-8.12-0.76-16.65,2.63-24.25C123.7,406.16,130.16,397.34,140.03,395.2z M138.13,404.28
			c-4.37,10.45-5.44,22.01-4.69,33.24c0.51,9.12,2.01,18.45,6.46,26.55c1.25,2.55,3.82,3.93,6.12,5.39c0.91-0.3,2.18-0.83,3.48-1.8
			c1.73-1.28,2.75-2.74,3.31-3.68c7.16-14.66,7.35-31.67,5.17-47.53c-1.23-5.44-2.33-11.13-5.51-15.82
			c-1.77-2.56-4.86-4.86-8.13-4.07C141.22,398.01,139.46,401.26,138.13,404.28z"/>
	</g>
	<path class="st0" d="M179.99,394.3c8.9-0.42,17.91-0.6,26.81,0.09c-1.02,1.12-2.05,2.24-3.11,3.33
		c5.91,11.31,11.17,22.97,17.14,34.24c3.69-12.28,9.67-23.64,14.4-35.51c-1.34-0.67-2.67-1.33-4.01-1.99
		c3.86-0.57,7.76-0.37,11.61,0.14c-2.22,1.09-5.1,1.49-6.49,3.77c-2.51,4.1-4,8.72-6.03,13.07c-3.23,6.85-6.24,13.85-8.63,21.05
		c-0.58,11.58,0.32,23.19-0.12,34.78c1.49,0.65,3.65,0.72,4.19,2.58c-8.16,0.25-16.39,0.44-24.52-0.24
		c1.08-1.16,2.47-1.93,3.87-2.64c0.39-8.81,0.15-17.63,0.25-26.44c0.47-4.65-3-8.27-4.64-12.33c-5.01-9.48-8.68-19.62-14.1-28.87
		C185.28,396.62,182.01,396.24,179.99,394.3z"/>
	<g>
		<path class="st0" d="M277.65,394.5c7.93-1.02,15.94-0.23,23.9-0.42c6.31,0.17,12.7-0.47,18.95,0.62
			c8.49,2.36,15.57,10.8,14.62,19.88c-0.59,8.11-6.88,14.97-14.68,16.91c3.92,2.19,8.78,2.63,12.05,5.98
			c7.6,6.33,7.55,18.94,0.87,25.93c-3.65,3.67-8.41,7.25-13.87,6.77c-13.67-0.25-27.34,0.28-41.01-0.46
			c0.17-2.18,2.78-1.83,4.24-2.48c0.54-23.42,0.01-46.86,0.1-70.28C281,396.34,279.18,395.68,277.65,394.5z M299.65,396.78
			c-1.11,4.13-0.69,8.45-0.88,12.67c0.03,7.23-0.18,14.47,0.17,21.69c5.13,2.93,10.48-0.47,14.39-3.78
			c7.08-6.61,7.8-18.65,1.17-25.84C310.96,397.15,305,395.83,299.65,396.78z M299.04,434.2c-0.43,10.98-0.2,21.98-0.03,32.97
			c1.44,0.73,2.88,1.47,4.32,2.22c5.49-1.64,11.37-3.45,15.42-7.75c3.41-3.78,3.43-9.39,2.84-14.16c-1.11-7.14-7.47-12.21-14.1-14.1
			C304.66,432.73,301.81,433.72,299.04,434.2z"/>
	</g>
	<path class="st0" d="M349.92,394.08c8.25-0.12,16.51-0.17,24.77,0.03c-0.06,3.05-4.23,0.79-4.1,3.25
		c-0.69,23.41-0.04,46.83-0.26,70.25c1.11,0.28,2.22,0.55,3.33,0.84c0.15,0.4,0.44,1.2,0.59,1.6c-5.93,0.32-11.85-0.2-17.77-0.04
		c-2.34-0.18-5.24,0.61-6.9-1.54c1.55-0.45,3.11-0.82,4.68-1.2c0.45-23.44,0.25-46.9,0.01-70.35
		C352.68,396.23,350.22,396.29,349.92,394.08z"/>
	<path class="st0" d="M385.03,394.32c8.43-0.6,16.94-0.45,25.37,0.21c-1.11,1.14-2.52,1.65-4.06,1.8
		c-0.72,20.38,0.04,40.78-0.23,61.17c0.06,4.13-0.39,8.28,0.04,12.41c-6.81,0.39-13.64,0.1-20.46-0.1c0.3-2.15,2.76-1.96,4.25-2.66
		c0.53-21.53,0.17-43.08,0.33-64.62c-0.07-1.78,0.13-3.62-0.4-5.33C388.23,396.26,386.42,395.61,385.03,394.32z"/>
	<path class="st0" d="M452.45,394.53c6.63-1.08,13.37-0.19,20.05-0.43c1.59,0.34,4.18-0.6,4.83,1.49c-1.32,0.21-2.63,0.41-3.94,0.62
		c-0.58,24.48-0.01,48.98-0.28,73.47c3.94-3.21,9.23-1,13.61-2.89c4.75-1.86,9.55-4.32,12.43-8.7c2.28-2.71,2.91-6.22,3.75-9.54
		c1.69,7.17,3.1,14.41,5.15,21.5c-8.86,0.31-17.72-0.12-26.57,0.13c-9.69-0.7-19.44,0.66-29.11-0.54c1.34-1.17,2.96-1.9,4.62-2.5
		c0.62-10.88,0.23-21.78,0.34-32.67c-0.09-12.3,0.19-24.62-0.13-36.91C455.78,396.31,454.01,395.56,452.45,394.53z"/>
	<path class="st0" d="M519.73,395.25c0.86-1.93,3.2-1.09,4.82-1.32c6.63,0.22,13.28-0.15,19.88,0.51c-0.77,1.45-2.01,2.09-3.71,1.91
		c-0.29,1.37-0.57,2.76-0.56,4.18c-0.07,22.35,0.14,44.7,0.06,67.05c1.57,0.54,3.15,1.14,4.48,2.18c-8.3,0.5-16.71,0.56-24.99-0.21
		c1.89-1.29,5.07-2.02,4.53-4.98c0.3-22.56,0.19-45.14-0.02-67.71C522.72,396.33,521.21,395.78,519.73,395.25z"/>
	<g>
		<path class="st0" d="M579.2,394.01c6.25-0.08,12.51,0.14,18.77,0.07c5.68,19.78,11.88,39.4,17.82,59.11
			c1.19,4.05,2.23,8.18,3.95,12.06c0.98,2.25,3.35,3.33,5.17,4.81c-8.53,0.3-17.09,0.14-25.61-0.37c1.19-0.98,2.43-1.88,3.71-2.74
			c-3.16-9.85-5.92-19.82-9.16-29.65c-7.24,1.57-13.78,5.24-20.7,7.78c-1.95,0.97-4.79,1.24-5.51,3.66
			c-1.97,6.1-4.04,12.2-5.42,18.46c1.24,0.61,2.64,1.19,3.33,2.5c-3.41,0.06-7.81,1.54-10.5-1.2c1.91-0.5,3.85-0.9,5.79-1.3
			c2.31-10.11,5.96-19.82,8.67-29.82c3.26-11.36,7.01-22.58,9.93-34.04c0.47-1.52,1.56-2.73,2.33-4.09
			C580.75,397.58,579.97,395.79,579.2,394.01z M580.89,400.86c-3.05,15.35-8.09,30.21-12.65,45.16c7.89-4.18,16.46-6.94,24.67-10.45
			c-2.03-11.73-6.53-22.83-10.21-34.08C582.25,401.34,581.34,401.02,580.89,400.86z"/>
	</g>
	<g>
		<path class="st0" d="M638.96,394.19c11.5-0.25,23.02-0.01,34.53-0.21c7.65-0.5,15.06,4.38,18.26,11.23
			c4.06,7.34,2.31,17.09-3.41,23.08c-2.37,2.89-5.89,4.3-9.11,5.99c2.96,2.21,6.86,3.25,8.84,6.64c4.49,5.6,2.25,13.06,3.67,19.54
			c2.24,0.27,4.5,0.6,6.72,1.1c-0.91,4.19-4.97,6.42-8.43,8.31c-4.48,1.17-9.83-0.76-12.4-4.68c-2.95-7.05-2.35-14.86-3.84-22.22
			c-1.51-6.58-8.83-9.12-14.86-9.29c-0.25,11.28-0.31,22.57-0.18,33.86c1.54,0.54,3.06,1.08,4.6,1.7c-3.47,1.28-7.2,0.65-10.79,0.76
			c-4.82-0.17-9.71,0.46-14.46-0.55c1.33-1.03,2.85-1.75,4.41-2.38c0.64-23.25,0.22-46.52,0.3-69.77
			C641.4,396.46,638.97,396.33,638.96,394.19z M658.76,396.22c-0.02,12.11,0.03,24.22-0.04,36.33c2.12,0.32,4.27,0.88,6.45,0.71
			c2.32-0.84,4.53-2.05,6.4-3.68c9.21-8.15,8.11-25.3-2.67-31.59C665.91,395.99,662.15,396.46,658.76,396.22z"/>
	</g>
	<g>
		<path class="st0" d="M705.13,395.12c9.13,0.85,18.31,0.37,27.45,0c10.75,0.23,22.86,3.83,28.66,13.62
			c4.51,6.7,4.61,15.04,5.65,22.77c-0.24,9.6-1.72,19.84-7.55,27.77c-8,8.74-20.58,10.23-31.76,10.77
			c-7.17-0.06-14.35,0.24-21.5-0.26c1.36-1.68,4.12-2.63,3.67-5.22c0.36-17.69-0.01-35.38,0.08-53.07
			c-0.1-4.64,0.35-9.32-0.46-13.91C707.93,396.78,706.52,395.98,705.13,395.12z M725.91,398.73c-0.29,21.6-0.2,43.22-0.04,64.82
			c-0.64,4.48,5.15,5.74,8.48,4.86c4.91-0.34,8.06-4.66,10.43-8.5c5.28-9.52,6.09-20.76,5.67-31.43c0.31-5.79-1.27-11.4-2.89-16.89
			c-1.75-5.6-4.91-11.07-10.02-14.2C733.97,395.15,728.57,395.08,725.91,398.73z"/>
	</g>
	<path class="st0" d="M797.36,395c11.74-3.37,24.69,2.36,31.84,11.88c0.68,1.17,2.43,2.89,0.78,4.06
		c-3.49,2.83-6.87,5.84-10.67,8.24c-0.17-6.63-0.78-13.98-5.1-19.34c-3.25-4.17-9.1-3.95-13.79-3.19c-5.9,0.75-8.85,7.83-7.09,13.07
		c1.63,6.63,8.1,10.14,13.37,13.64c7.19,4.92,15.44,9.15,20.18,16.78c4.76,7.26,3.85,18.06-2.94,23.76
		c-4.62,3.7-10.54,5.52-16.33,6.37c-11.57,0.68-23.02-5.97-28.88-15.87c3.97-3.39,7.97-6.77,12.28-9.73
		c0.09,6.94,0.28,14.69,5.06,20.25c3.28,3.82,8.92,3,13.41,2.81c4.25-0.22,6.72-4.47,7.25-8.26c1.03-4.42-1.32-8.81-4.52-11.71
		c-8.49-8.01-20.28-12.11-27.31-21.75c-4.23-5.33-5.37-12.84-2.95-19.19C784.66,400.6,790.7,396.13,797.36,395z"/>
	<path class="st0" d="M417.47,467.45c8.76-2.32,17.35-8.94,18.26-18.55c2,6.97,3.33,14.12,5.21,21.13
		c-6.8,0.3-13.61,0.05-20.41,0.07c-4.75-0.02-9.58,0.56-14.25-0.56C409.44,466.78,413.74,468.35,417.47,467.45z"/>
	<g>
		<path class="st0" d="M548.1,485.68c5.25,0.5,12.24-1.7,15.91,3.24c3.08,5.17,2.93,14.15-3.6,16.57c-4.05,0.83-8.24,0.35-12.33,0.2
			C547.51,499.03,548.21,492.35,548.1,485.68z M552.38,490.22c-0.36,3.65-0.51,7.34,0.11,10.98c2.41,0.06,4.99,0.55,7.27-0.51
			c1.87-1.87,1.25-4.9,1.35-7.28C561.01,489.09,555.26,490.38,552.38,490.22z"/>
	</g>
	<path class="st0" d="M56.82,499c-0.02-2.96,0.04-5.92,0.19-8.87c66.8,0.3,133.6-0.04,200.4,0.17c0.15,2.89,0.11,5.79-0.02,8.69
		C190.53,498.94,123.67,499.13,56.82,499z"/>
	<path class="st0" d="M631.38,490.23c64.62-0.03,129.24,0.12,193.86-0.08c0.02,2.94-0.01,5.88-0.1,8.82
		c-50.85,0.26-101.71-0.07-152.56,0.12c-13.83-0.09-27.66,0.17-41.48-0.15C631.22,496.03,631.31,493.13,631.38,490.23z"/>
	<path class="st0" d="M350.98,520.4c3.39,0.15,6.79,0.24,10.18,0.03c11.4,14.61,20.88,30.56,31.68,45.6
		c3.2,4.44,6.77,8.71,11.25,11.92c8.18,6.61,19.12,8.52,29.39,8.45c9.13,0.02,18.71-1.34,26.48-6.46
		c7.14-5.15,12.74-12.12,17.53-19.44c6.18-8.82,12.27-17.71,18.28-26.65c2.8-4.52,5.82-8.89,9.21-12.99
		c3.45-0.23,6.9-0.39,10.36-0.47c-1.42,3.9-4.44,6.86-6.52,10.39c-6.73,9.31-13.38,18.67-19.57,28.35
		c-6.31,9.16-11.93,19.31-21.29,25.78c-11.19,8.53-25.73,11.16-39.53,10.28c-12.63-0.54-25.14-5.53-34.25-14.37
		c-7.2-6.71-11.91-15.46-17.71-23.31C367.59,545.41,359.76,532.57,350.98,520.4z"/>
</g>
<g>
	<g>
		<path class="st1" d="M140.11,414.15c3.22-4.75,11.75-3.35,13.26,2.22c1.52,5.43,1.57,12.02-2.53,16.39
			c1.09,1.16,5.39,6.02,4.95,12.68c-0.11,1.69-0.42,6.35-3.99,8.97c-1.26,0.92-2.54,1.32-3.41,1.5c-1.24,0.18-3.71,0.35-6.16-0.99
			c-0.17-0.09-0.81-0.45-1.6-1.12c0,0-2.81-2.38-4.07-6.26c-1.31-4.05,0.02-10.09,4.28-15.26
			C137.05,427.08,136.05,419.49,140.11,414.15z M143.8,417.79c-0.34,0.44-0.78,1.11-1.1,2c-0.61,1.67-0.42,3.08-0.21,4.57
			c0.28,1.95,0.59,4.1,2.25,5.2c0.4,0.26,0.78,0.4,1.02,0.47c0.45,0.02,1.15-0.03,1.87-0.38c1.53-0.76,2.03-2.39,2.39-3.57
			c0.21-0.7,0.94-3.19-0.18-5.89c-0.41-1-0.86-2.07-2-2.66C146.06,416.59,144.06,417.65,143.8,417.79z M143.43,438.18
			c-0.44,0.49-2.28,2.61-2.19,5.73c0.12,4.45,4.03,6.81,4.28,6.96c0.5,0.12,2,0.42,3.45-0.38c1.35-0.74,1.87-2.01,2.2-2.85
			c1.15-2.91,1.54-8.5-1.75-10.17C146.95,436.22,143.93,437.9,143.43,438.18z"/>
	</g>
</g>
<g>
	<path class="st2" d="M307.66,485.66c1.43,0,2.86,0.05,4.29,0.1c3.35,4.34,6.3,9,8.38,14.09c0.09-4.77,0.23-9.53,0.07-14.3
		c1.48,0.04,2.97,0.09,4.46,0.15c-0.5,6.65-0.2,13.33-0.27,20c-1.72,0.02-3.43,0.05-5.14,0.07c-2.67-4.96-5.44-9.88-8.28-14.74
		c0.15,4.85,0.28,9.7,0.44,14.55c-1.46,0.1-2.93,0.2-4.39,0.3C307.38,499.14,308.12,492.4,307.66,485.66z"/>
	<path class="st2" d="M352.76,485.29c1.47,0.03,2.89,0.28,4.27,0.76c1.96,4.39,2.16,9.35,4.15,13.74c3.04-3.87,2.91-9.32,4.55-13.85
		c1.58,0.04,3.16,0.1,4.75,0.17c1.27,4.55,1.3,9.64,4.05,13.65c1.51-4.62,2.79-9.32,3.87-14.06c1.52-0.03,3.05-0.05,4.58-0.05
		c-2.35,6.61-4.24,13.37-6.01,20.16c-1.67-0.06-3.33-0.12-4.98-0.28c-1.64-4.46-1.81-9.52-4.31-13.6
		c-1.28,4.49-2.45,9.02-3.62,13.54c-1.65,0.43-3.36,0.35-5.03,0.15C356.95,498.84,354.76,492.09,352.76,485.29z"/>
	<path class="st2" d="M406.65,485.97c5.76-0.27,11.53-0.39,17.28,0.04c-0.22,3.93-3.39,6.4-5.96,8.94
		c-2.21,2.09-4.44,4.15-6.64,6.26c3.95,0.13,7.91,0,11.84,0.38c0.23,1.31,0.45,2.64,0.67,3.97c-5.99,0.13-12,0.64-17.96-0.18
		c2.68-6.37,8.97-10.05,13.29-15.19c-4.15,0.16-8.3,0.16-12.44-0.08C406.69,488.72,406.67,487.34,406.65,485.97z"/>
	<path class="st2" d="M434.08,487.12c3.34-2.3,7.65-1.6,11.46-1.41c0.1,1.48,0.17,2.98,0.21,4.48c-3.3-0.03-6.61-0.1-9.86,0.53
		c-0.5,1.27-0.97,2.55-1.43,3.84c3.73,0.02,7.46,0.12,11.2,0.12c0.06,1.34,0.12,2.69,0.16,4.05c-3.91,0.54-7.86,0.6-11.79,0.54
		c2.22,4.41,7.8,1.76,11.66,2.27c-0.03,1.39-0.07,2.79-0.11,4.2c-3.53,0.11-7.27,0.64-10.63-0.73
		C428.84,501.37,428.69,491.46,434.08,487.12z"/>
	<path class="st2" d="M522.64,485.68c1.8-0.05,3.61-0.08,5.42-0.1c1.93,4.83,4.66,9.28,7.66,13.52c0.15-4.47,0.18-8.95-0.15-13.41
		c1.42-0.05,2.84-0.1,4.26-0.14c-0.28,6.75-0.16,13.51-0.05,20.26c-1.73-0.01-3.46-0.03-5.18-0.06c-2.5-4.97-5.28-9.8-8.18-14.54
		c-0.02,4.88-0.12,9.78,0.43,14.64c-1.43-0.02-2.84-0.04-4.25-0.06C522.98,499.09,523.06,492.38,522.64,485.68z"/>
</g>
<g>
	<path class="st3" d="M335.84,486.84c3.19-1.87,7.06-1.42,10.6-1.16c0.23,1.44,0.46,2.89,0.68,4.34c-2.86,0.41-5.75,0.06-8.61,0.42
		c-1.93,0.1-2.26,2.27-3.13,3.59c3.76,0.64,7.59,0.69,11.39,0.64c0.16,1.44,0.28,2.87,0.39,4.33c-3.86,0.3-7.73,0.2-11.59,0.24
		c2.43,3.64,7.37,2.03,11.01,2.12c0.1,1.44,0.19,2.88,0.28,4.33c-3.77,0.49-7.9,0.72-11.34-1.17
		C329.5,500.68,329.75,490.5,335.84,486.84z"/>
	<g>
		<path class="st3" d="M459.16,485.73c1.55,0.01,3.12,0.02,4.69,0.04c2.59,6.74,5.22,13.48,7.95,20.18
			c-1.43-0.08-2.85-0.21-4.25-0.41c-1.07-1-1.48-2.48-2.34-3.62c-2.54-0.63-5.19-0.27-7.77-0.24c-0.55,1.37-1.01,2.79-1.8,4.05
			c-1.52,0.21-3.03,0.25-4.56,0.12C453.58,499.06,456.39,492.4,459.16,485.73z M458.35,496.54c1.96,0.06,3.93,0.08,5.9,0.07
			c-0.67-2.2-1.56-4.34-3.12-6.06C459.99,492.44,459.14,494.48,458.35,496.54z"/>
	</g>
	<g>
		<path class="st3" d="M503.91,485.81c1.54-0.04,3.09-0.07,4.65-0.08c2.49,6.88,5.76,13.47,7.68,20.55
			c-0.92-0.16-2.77-0.49-3.69-0.66c-1.49-0.85-1.68-2.94-3.12-3.85c-2.36-0.55-4.8-0.3-7.18-0.29c-0.57,1.41-0.88,2.98-1.87,4.18
			c-1.57,0.23-3.14,0.29-4.72,0.17C498.26,499.1,500.94,492.39,503.91,485.81z M506.04,490.59c-1.03,1.94-1.89,3.96-2.72,6
			c1.81,0.12,3.63,0.22,5.47,0.31C508.07,494.74,508.16,491.96,506.04,490.59z"/>
	</g>
</g>
<g>
	<path class="st4" d="M477.64,485.57c1.53,0.02,3.07,0.05,4.61,0.09c-0.61,5.03-0.55,10.11-0.18,15.17c3.03,0.52,6.13,0.51,9.2,0.65
		c-0.08,1.31-0.16,2.63-0.23,3.96c-4.07,0.41-10.23,1.45-12.27-3.16C476.96,496.89,478.37,491.1,477.64,485.57z"/>
</g>
<g>
	<path class="st5" d="M458.35,496.54c0.79-2.06,1.64-4.1,2.78-5.99c1.56,1.72,2.45,3.86,3.12,6.06
		C462.28,496.62,460.31,496.6,458.35,496.54z"/>
</g>
<g>
	<path class="st6" d="M506.04,490.59c2.12,1.37,2.03,4.15,2.75,6.31c-1.84-0.09-3.66-0.19-5.47-0.31
		C504.15,494.55,505.01,492.53,506.04,490.59z"/>
</g>
</svg>
